<?xml version="1.0" standalone="no"?>
<!DOCTYPE svg PUBLIC "-//W3C//DTD SVG 20010904//EN"
 "http://www.w3.org/TR/2001/REC-SVG-20010904/DTD/svg10.dtd">
<svg version="1.0" xmlns="http://www.w3.org/2000/svg"
 width="2363.000000pt" height="1957.000000pt" viewBox="0 0 2363.000000 1957.000000"
 preserveAspectRatio="xMidYMid meet">
<metadata>
Created by potrace 1.16, written by Peter Selinger 2001-2019
</metadata>
<g transform="translate(0.000000,1957.000000) scale(0.100000,-0.100000)"
fill="#000000" stroke="none">
<path d="M16638 18829 c-615 -24 -1207 -128 -1763 -309 -460 -151 -985 -392
-1099 -506 -241 -241 -111 -650 225 -706 112 -18 184 0 383 99 979 486 2009
671 3106 557 1230 -127 2257 -587 3059 -1369 809 -789 1294 -1797 1441 -2992
27 -222 43 -530 35 -693 -28 -608 -150 -1083 -419 -1626 -165 -335 -355 -638
-633 -1009 -258 -345 -461 -588 -1057 -1265 -752 -852 -1024 -1188 -1313
-1616 -219 -327 -310 -554 -383 -960 -18 -99 -39 -190 -47 -202 -20 -32 -59
-47 -246 -92 -397 -96 -642 -125 -1067 -124 -281 0 -348 3 -495 23 -269 36
-605 108 -702 151 -62 27 -77 60 -102 223 -71 450 -195 739 -487 1134 -290
392 -642 816 -1223 1476 -423 482 -454 517 -643 744 -683 818 -1062 1441
-1271 2088 -222 684 -241 1390 -61 2260 124 602 346 1140 687 1669 108 167
130 222 129 331 0 128 -46 232 -141 318 -69 61 -142 88 -257 94 -173 10 -278
-49 -397 -222 -446 -651 -760 -1456 -896 -2295 -236 -1453 10 -2579 834 -3820
301 -453 596 -825 1219 -1535 641 -730 829 -950 1068 -1250 416 -524 530 -712
584 -969 29 -137 89 -959 119 -1631 25 -551 46 -813 90 -1084 73 -445 192
-716 415 -942 133 -135 309 -245 486 -303 28 -9 62 -29 76 -44 14 -15 123
-164 243 -332 120 -168 239 -331 263 -364 75 -97 66 -96 489 -96 312 0 368 2
403 16 48 19 62 37 350 439 106 149 206 284 223 302 19 21 63 45 121 68 194
77 322 161 452 297 181 189 282 403 359 763 70 328 90 525 145 1405 85 1357
88 1385 160 1603 63 186 141 327 301 538 313 416 558 710 1219 1464 636 726
878 1021 1160 1415 622 870 948 1652 1056 2530 22 180 30 708 15 924 -51 699
-232 1434 -504 2046 -434 978 -1139 1798 -2077 2416 -904 595 -1922 912 -3100
964 -244 11 -242 11 -532 -1z m-758 -13559 c662 -134 1325 -134 1995 1 110 23
207 42 215 42 13 2 15 -15 12 -108 -9 -389 -40 -886 -73 -1155 -55 -459 -97
-589 -225 -710 -104 -97 -197 -133 -449 -172 -193 -30 -628 -33 -810 -4 -177
27 -412 89 -499 130 -136 66 -222 174 -251 315 -17 84 -79 566 -105 822 -20
196 -38 523 -43 762 -2 124 -1 128 18 122 11 -3 108 -23 215 -45z"/>
<path d="M8743 14068 c-6 -18 -103 -277 -215 -575 l-205 -543 386 1 386 0 385
565 c212 311 387 570 388 575 2 5 -217 9 -555 9 l-560 0 -10 -32z"/>
<path d="M1370 10995 l0 -2865 585 0 585 0 0 2865 0 2865 -585 0 -585 0 0
-2865z"/>
<path d="M5508 12954 l-3 -906 -50 69 c-65 88 -184 207 -267 266 -84 60 -210
119 -313 147 -112 31 -418 39 -551 16 -565 -98 -883 -496 -1013 -1271 -84
-501 -94 -1246 -25 -1805 107 -863 433 -1311 1028 -1415 119 -20 394 -20 512
0 277 49 477 175 642 405 34 47 68 94 76 105 14 18 15 -5 16 -207 l0 -228 535
0 535 0 0 2865 0 2865 -560 0 -560 0 -2 -906z m-432 -1268 c120 -32 225 -119
283 -234 98 -194 146 -576 146 -1162 0 -385 -10 -545 -45 -780 -39 -259 -91
-400 -181 -495 -90 -95 -192 -135 -350 -135 -262 0 -411 130 -483 425 -60 241
-86 541 -86 985 0 333 11 537 41 745 58 407 149 571 358 642 78 27 234 31 317
9z"/>
<path d="M8590 12549 c-635 -73 -1051 -412 -1250 -1017 -112 -341 -164 -894
-141 -1502 26 -690 77 -963 236 -1280 145 -287 410 -514 722 -618 192 -65 400
-92 703 -92 311 0 501 26 704 97 317 110 530 298 681 601 105 209 160 441 189
800 l4 42 -504 0 c-292 0 -504 -4 -504 -9 0 -33 -45 -262 -66 -336 -32 -115
-101 -258 -152 -315 -88 -100 -210 -145 -376 -138 -83 3 -111 9 -158 30 -140
65 -257 236 -312 458 -37 152 -48 264 -53 558 l-5 292 1097 0 1098 0 -6 333
c-7 364 -16 495 -53 754 -60 425 -187 728 -395 948 -211 221 -468 344 -816
390 -125 16 -513 19 -643 4z m436 -763 c171 -45 283 -178 340 -402 25 -102 49
-293 60 -481 l7 -123 -563 0 -563 0 6 188 c9 261 48 436 129 580 65 115 188
216 294 241 60 14 233 12 290 -3z"/>
<path d="M2320 7613 c-702 -72 -1191 -404 -1384 -943 -143 -396 -153 -978 -24
-1364 123 -371 404 -660 853 -881 173 -85 325 -147 580 -235 465 -160 657
-260 812 -423 118 -125 174 -265 188 -477 18 -257 -67 -485 -227 -605 -148
-111 -282 -155 -475 -155 -324 0 -544 119 -653 353 -53 112 -71 223 -77 475
l-6 222 -585 0 -585 0 6 -247 c8 -321 30 -474 99 -683 114 -347 334 -611 633
-759 164 -82 348 -136 605 -176 161 -26 668 -32 868 -11 505 54 908 217 1176
476 204 197 327 434 391 754 69 347 57 797 -30 1076 -90 286 -311 543 -640
743 -147 89 -283 153 -825 387 -652 282 -712 312 -832 419 -129 115 -198 306
-198 549 0 226 50 373 165 487 115 114 262 165 477 165 198 0 322 -42 422
-143 122 -123 206 -391 206 -658 l0 -49 560 0 560 0 0 103 c0 523 -126 884
-404 1162 -241 241 -564 377 -1021 430 -118 14 -530 19 -635 8z"/>
<path d="M10650 7613 c-702 -72 -1191 -404 -1384 -943 -143 -396 -153 -978
-24 -1364 123 -371 404 -660 853 -881 173 -85 325 -147 580 -235 465 -160 657
-260 812 -423 118 -125 174 -265 188 -477 18 -257 -67 -485 -227 -605 -148
-111 -282 -155 -475 -155 -324 0 -544 119 -653 353 -53 112 -71 223 -77 475
l-6 222 -585 0 -585 0 6 -247 c8 -321 30 -474 99 -683 114 -347 334 -611 633
-759 164 -82 348 -136 605 -176 161 -26 668 -32 868 -11 505 54 908 217 1176
476 204 197 327 434 391 754 69 347 57 797 -30 1076 -90 286 -311 543 -640
743 -147 89 -283 153 -825 387 -652 282 -712 312 -832 419 -129 115 -198 306
-198 549 0 226 50 373 165 487 115 114 262 165 477 165 198 0 322 -42 422
-143 122 -123 206 -391 206 -658 l0 -49 560 0 560 0 0 103 c0 523 -126 884
-404 1162 -241 241 -564 377 -1021 430 -118 14 -530 19 -635 8z"/>
<path d="M4750 7506 c0 -2 333 -783 740 -1736 l740 -1733 0 -1129 0 -1128 585
0 585 0 0 1128 0 1128 740 1733 c407 953 740 1735 740 1737 0 2 -284 3 -632 2
l-632 -3 -372 -1030 c-205 -566 -385 -1063 -400 -1103 -14 -40 -28 -71 -30
-69 -2 2 -166 480 -364 1063 -198 582 -367 1078 -376 1102 l-16 42 -654 0
c-360 0 -654 -2 -654 -4z"/>
</g>
</svg>
